<svg width="1458" height="2574" viewBox="0 0 1458 2574" fill="none" xmlns="http://www.w3.org/2000/svg" class="squiggle">
<g clip-path="url(#clip0_17_204)">
<path d="M308.693 53.0802C300.194 48.1346 296.205 37.0762 299.051 26.9092C299.574 25.0838 300.039 23.1947 300.407 21.3057C301.917 12.8155 299.884 2.16032 291.365 0.271251C287.067 -0.726345 282.789 1.09905 279.769 4.55879C270.766 15.2776 273.515 47.5615 273.593 55.6484C273.593 59.1931 273.67 62.8226 274.948 66.1338C277.813 73.5627 285.867 76.5343 293.011 78.5931C304.743 83.284 312.139 77.3621 314.617 72.9896C317.095 68.6172 318.896 58.8959 308.693 53.0802Z" fill="black"/>
<path d="M316.902 85.1943C313.533 85.1943 310.803 89.4041 310.803 94.5971C310.803 99.7902 313.533 104 316.902 104C320.27 104 323 99.7902 323 94.5971C323 89.4041 320.27 85.1943 316.902 85.1943Z" fill="black"/>
<path d="M302.807 87.4229C300.808 87.4229 299.187 89.9317 299.187 93.0264C299.187 96.1212 300.808 98.6299 302.807 98.6299C304.807 98.6299 306.428 96.1212 306.428 93.0264C306.428 89.9317 304.807 87.4229 302.807 87.4229Z" fill="black"/>
<path d="M291.52 84.6212C289.735 84.6212 288.287 86.8353 288.287 89.5667C288.287 92.298 289.735 94.5122 291.52 94.5122C293.306 94.5122 294.753 92.298 294.753 89.5667C294.753 86.8353 293.306 84.6212 291.52 84.6212Z" fill="black"/>
<path d="M281.221 82.2864C279.638 82.2864 278.355 84.244 278.355 86.6588C278.355 89.0736 279.638 91.0312 281.221 91.0312C282.803 91.0312 284.086 89.0736 284.086 86.6588C284.086 84.244 282.803 82.2864 281.221 82.2864Z" fill="black"/>
<path d="M275.966 81.3828C276.36 79.2816 275.559 77.3256 274.176 77.0139C272.794 76.7023 271.354 78.153 270.96 80.2543C270.566 82.3555 271.367 84.3115 272.749 84.6232C274.132 84.9348 275.572 83.4841 275.966 81.3828Z" fill="black"/>
</g>
<path d="M518.029 934.544C510.475 928.248 498.719 928.283 490.138 934.435C488.602 935.55 486.986 936.633 485.336 937.625C477.875 941.947 467.167 943.681 462.478 936.323C460.071 932.625 460.323 927.98 462.541 923.959C469.534 911.833 500.811 903.375 508.437 900.682C511.768 899.47 515.205 898.301 518.754 898.369C526.715 898.521 532.261 905.073 536.64 911.082C545.06 920.502 542.025 929.477 538.764 933.301C535.502 937.125 526.983 942.142 518.029 934.544Z" fill="black"/>
<path d="M551.014 931.274C549.862 928.109 552.884 924.103 557.764 922.327C562.643 920.551 567.533 921.677 568.685 924.842C569.837 928.007 566.815 932.012 561.935 933.788C557.055 935.564 552.166 934.438 551.014 931.274Z" fill="black"/>
<path d="M548.287 917.267C547.603 915.388 549.407 913.007 552.315 911.948C555.223 910.89 558.135 911.555 558.818 913.434C559.502 915.313 557.699 917.694 554.791 918.752C551.883 919.811 548.971 919.146 548.287 917.267Z" fill="black"/>
<path d="M541.794 907.619C541.183 905.941 542.769 903.823 545.336 902.889C547.902 901.955 550.478 902.558 551.089 904.236C551.699 905.914 550.114 908.031 547.547 908.966C544.981 909.9 542.405 909.297 541.794 907.619Z" fill="black"/>
<path d="M536.077 898.739C535.536 897.252 536.937 895.377 539.206 894.551C541.475 893.725 543.754 894.261 544.295 895.748C544.836 897.235 543.435 899.11 541.166 899.936C538.897 900.762 536.619 900.226 536.077 898.739Z" fill="black"/>
<path d="M533.431 894.11C531.592 895.199 529.479 895.115 528.714 893.923C527.948 892.73 528.819 890.881 530.658 889.792C532.498 888.703 534.61 888.787 535.376 889.979C536.142 891.172 535.271 893.021 533.431 894.11Z" fill="black"/>
<path d="M439.772 347.282C438.032 337.604 429.005 330.075 418.477 329.272C416.583 329.138 414.649 328.929 412.748 328.628C404.254 327.144 394.936 321.589 396.075 312.938C396.607 308.558 399.786 305.162 404.07 303.507C417.221 298.714 446.618 312.339 454.191 315.178C457.522 316.39 460.906 317.704 463.58 320.037C469.581 325.271 469.619 333.855 469.11 341.272C469.506 353.901 461.411 358.826 456.455 359.659C451.499 360.492 441.748 358.859 439.772 347.282Z" fill="black"/>
<path d="M467.142 365.98C468.294 362.815 473.184 361.689 478.064 363.465C482.944 365.241 485.966 369.247 484.814 372.412C483.662 375.577 478.772 376.703 473.892 374.926C469.012 373.15 465.99 369.145 467.142 365.98Z" fill="black"/>
<path d="M474.057 353.498C474.741 351.619 477.653 350.954 480.561 352.012C483.469 353.071 485.272 355.452 484.588 357.331C483.904 359.21 480.993 359.875 478.084 358.816C475.176 357.758 473.373 355.377 474.057 353.498Z" fill="black"/>
<path d="M475.285 341.933C475.895 340.255 478.471 339.652 481.038 340.587C483.604 341.521 485.19 343.638 484.579 345.316C483.969 346.994 481.393 347.597 478.826 346.663C476.26 345.729 474.674 343.611 475.285 341.933Z" fill="black"/>
<path d="M476.613 331.456C477.155 329.969 479.433 329.433 481.702 330.259C483.971 331.085 485.372 332.96 484.831 334.447C484.29 335.934 482.011 336.47 479.742 335.644C477.473 334.818 476.072 332.943 476.613 331.456Z" fill="black"/>
<path d="M477.561 326.21C475.452 325.861 473.888 324.439 474.068 323.034C474.248 321.628 476.104 320.771 478.213 321.119C480.323 321.467 481.887 322.889 481.707 324.295C481.527 325.701 479.671 326.558 477.561 326.21Z" fill="black"/>
<path d="M461.772 1257.28C460.032 1247.6 451.005 1240.07 440.477 1239.27C438.583 1239.14 436.649 1238.93 434.748 1238.63C426.254 1237.14 416.936 1231.59 418.075 1222.94C418.607 1218.56 421.786 1215.16 426.07 1213.51C439.221 1208.71 468.618 1222.34 476.191 1225.18C479.522 1226.39 482.906 1227.7 485.58 1230.04C491.581 1235.27 491.619 1243.86 491.11 1251.27C491.506 1263.9 483.411 1268.83 478.455 1269.66C473.499 1270.49 463.748 1268.86 461.772 1257.28Z" fill="black"/>
<path d="M489.142 1275.98C490.294 1272.81 495.184 1271.69 500.064 1273.47C504.944 1275.24 507.966 1279.25 506.814 1282.41C505.662 1285.58 500.772 1286.7 495.892 1284.93C491.012 1283.15 487.99 1279.14 489.142 1275.98Z" fill="black"/>
<path d="M496.057 1263.5C496.741 1261.62 499.653 1260.95 502.561 1262.01C505.469 1263.07 507.272 1265.45 506.588 1267.33C505.904 1269.21 502.993 1269.87 500.084 1268.82C497.176 1267.76 495.373 1265.38 496.057 1263.5Z" fill="black"/>
<path d="M497.285 1251.93C497.895 1250.26 500.471 1249.65 503.038 1250.59C505.604 1251.52 507.19 1253.64 506.579 1255.32C505.969 1256.99 503.393 1257.6 500.826 1256.66C498.26 1255.73 496.674 1253.61 497.285 1251.93Z" fill="black"/>
<path d="M498.613 1241.46C499.155 1239.97 501.433 1239.43 503.702 1240.26C505.971 1241.09 507.372 1242.96 506.831 1244.45C506.29 1245.93 504.011 1246.47 501.742 1245.64C499.473 1244.82 498.072 1242.94 498.613 1241.46Z" fill="black"/>
<path d="M499.561 1236.21C497.452 1235.86 495.888 1234.44 496.068 1233.03C496.248 1231.63 498.104 1230.77 500.213 1231.12C502.323 1231.47 503.887 1232.89 503.707 1234.3C503.527 1235.7 501.671 1236.56 499.561 1236.21Z" fill="black"/>
<path d="M541.86 538.772C551.538 537.032 559.068 528.005 559.871 517.477C560.004 515.583 560.213 513.649 560.514 511.748C561.999 503.254 567.553 493.936 576.204 495.075C580.584 495.607 583.98 498.786 585.635 503.07C590.429 516.221 576.803 545.618 573.965 553.191C572.753 556.522 571.438 559.906 569.105 562.58C563.872 568.581 555.287 568.619 547.87 568.11C535.241 568.506 530.317 560.411 529.484 555.455C528.65 550.499 530.283 540.748 541.86 538.772Z" fill="black"/>
<path d="M523.163 566.142C526.328 567.294 527.453 572.184 525.677 577.064C523.901 581.944 519.896 584.966 516.731 583.814C513.566 582.662 512.44 577.772 514.216 572.892C515.992 568.012 519.998 564.99 523.163 566.142Z" fill="black"/>
<path d="M535.645 573.057C537.524 573.741 538.189 576.653 537.13 579.561C536.072 582.469 533.691 584.272 531.812 583.588C529.933 582.904 529.268 579.992 530.326 577.084C531.385 574.176 533.766 572.373 535.645 573.057Z" fill="black"/>
<path d="M547.209 574.285C548.887 574.895 549.49 577.471 548.556 580.038C547.622 582.604 545.504 584.19 543.826 583.579C542.148 582.968 541.545 580.393 542.48 577.826C543.414 575.259 545.531 573.674 547.209 574.285Z" fill="black"/>
<path d="M557.686 575.613C559.173 576.155 559.709 578.433 558.883 580.702C558.057 582.971 556.182 584.372 554.695 583.831C553.208 583.29 552.672 581.011 553.498 578.742C554.324 576.473 556.199 575.072 557.686 575.613Z" fill="black"/>
<path d="M562.933 576.561C563.281 574.452 564.703 572.888 566.109 573.068C567.515 573.248 568.372 575.104 568.023 577.213C567.675 579.322 566.253 580.887 564.847 580.707C563.442 580.527 562.585 578.671 562.933 576.561Z" fill="black"/>
<path d="M605.579 1157.79C615.412 1157.75 624.395 1150.17 627.014 1139.94C627.474 1138.1 628.016 1136.23 628.642 1134.41C631.579 1126.3 638.667 1118.09 646.989 1120.72C651.21 1122 654.003 1125.72 654.888 1130.23C657.325 1144.01 638.802 1170.6 634.692 1177.56C632.92 1180.63 631.038 1183.73 628.276 1185.96C622.08 1190.96 613.619 1189.51 606.403 1187.72C593.897 1185.92 590.453 1177.09 590.493 1172.07C590.533 1167.04 593.835 1157.72 605.579 1157.79Z" fill="black"/>
<path d="M582.413 1181.49C585.329 1183.18 585.589 1188.19 582.993 1192.69C580.396 1197.18 575.926 1199.46 573.01 1197.78C570.093 1196.1 569.833 1191.08 572.43 1186.59C575.026 1182.09 579.496 1179.81 582.413 1181.49Z" fill="black"/>
<path d="M593.504 1190.47C595.236 1191.47 595.385 1194.45 593.838 1197.13C592.29 1199.81 589.632 1201.18 587.901 1200.18C586.169 1199.18 586.02 1196.19 587.567 1193.51C589.114 1190.83 591.773 1189.47 593.504 1190.47Z" fill="black"/>
<path d="M604.68 1193.69C606.226 1194.58 606.373 1197.22 605.007 1199.59C603.641 1201.95 601.281 1203.15 599.734 1202.25C598.188 1201.36 598.041 1198.72 599.407 1196.35C600.773 1193.99 603.133 1192.79 604.68 1193.69Z" fill="black"/>
<path d="M614.767 1196.82C616.138 1197.61 616.27 1199.94 615.062 1202.03C613.855 1204.13 611.765 1205.18 610.395 1204.39C609.024 1203.6 608.892 1201.26 610.099 1199.17C611.307 1197.08 613.397 1196.02 614.767 1196.82Z" fill="black"/>
<path d="M619.769 1198.66C620.479 1196.64 622.151 1195.35 623.504 1195.77C624.857 1196.19 625.379 1198.17 624.669 1200.19C623.96 1202.2 622.288 1203.5 620.935 1203.07C619.582 1202.65 619.06 1200.68 619.769 1198.66Z" fill="black"/>
<path d="M1026.03 1240.54C1018.47 1234.25 1006.72 1234.28 998.139 1240.43C996.602 1241.55 994.986 1242.63 993.336 1243.62C985.875 1247.95 975.167 1249.68 970.478 1242.32C968.071 1238.62 968.323 1233.98 970.541 1229.96C977.534 1217.83 1008.81 1209.37 1016.44 1206.68C1019.77 1205.47 1023.21 1204.3 1026.75 1204.37C1034.71 1204.52 1040.26 1211.07 1044.64 1217.08C1053.06 1226.5 1050.02 1235.48 1046.76 1239.3C1043.5 1243.12 1034.98 1248.14 1026.03 1240.54Z" fill="black"/>
<path d="M1059.01 1237.27C1057.86 1234.11 1060.88 1230.1 1065.76 1228.33C1070.64 1226.55 1075.53 1227.68 1076.69 1230.84C1077.84 1234.01 1074.82 1238.01 1069.94 1239.79C1065.06 1241.56 1060.17 1240.44 1059.01 1237.27Z" fill="black"/>
<path d="M1056.29 1223.27C1055.6 1221.39 1057.41 1219.01 1060.31 1217.95C1063.22 1216.89 1066.13 1217.55 1066.82 1219.43C1067.5 1221.31 1065.7 1223.69 1062.79 1224.75C1059.88 1225.81 1056.97 1225.15 1056.29 1223.27Z" fill="black"/>
<path d="M1049.79 1213.62C1049.18 1211.94 1050.77 1209.82 1053.34 1208.89C1055.9 1207.95 1058.48 1208.56 1059.09 1210.24C1059.7 1211.91 1058.11 1214.03 1055.55 1214.97C1052.98 1215.9 1050.4 1215.3 1049.79 1213.62Z" fill="black"/>
<path d="M1044.08 1204.74C1043.54 1203.25 1044.94 1201.38 1047.21 1200.55C1049.48 1199.72 1051.75 1200.26 1052.3 1201.75C1052.84 1203.23 1051.44 1205.11 1049.17 1205.94C1046.9 1206.76 1044.62 1206.23 1044.08 1204.74Z" fill="black"/>
<path d="M1041.43 1200.11C1039.59 1201.2 1037.48 1201.12 1036.71 1199.92C1035.95 1198.73 1036.82 1196.88 1038.66 1195.79C1040.5 1194.7 1042.61 1194.79 1043.38 1195.98C1044.14 1197.17 1043.27 1199.02 1041.43 1200.11Z" fill="black"/>
<path d="M689.029 2541.54C681.475 2535.25 669.719 2535.28 661.138 2541.43C659.602 2542.55 657.986 2543.63 656.336 2544.62C648.875 2548.95 638.167 2550.68 633.478 2543.32C631.071 2539.63 631.323 2534.98 633.541 2530.96C640.534 2518.83 671.811 2510.37 679.437 2507.68C682.768 2506.47 686.205 2505.3 689.754 2505.37C697.715 2505.52 703.262 2512.07 707.64 2518.08C716.06 2527.5 713.025 2536.48 709.764 2540.3C706.503 2544.13 697.983 2549.14 689.029 2541.54Z" fill="black"/>
<path d="M722.014 2538.27C720.862 2535.11 723.884 2531.1 728.764 2529.33C733.644 2527.55 738.533 2528.68 739.685 2531.84C740.837 2535.01 737.815 2539.01 732.935 2540.79C728.055 2542.56 723.166 2541.44 722.014 2538.27Z" fill="black"/>
<path d="M719.287 2524.27C718.604 2522.39 720.407 2520.01 723.315 2518.95C726.223 2517.89 729.135 2518.56 729.819 2520.43C730.502 2522.31 728.699 2524.69 725.791 2525.75C722.883 2526.81 719.971 2526.15 719.287 2524.27Z" fill="black"/>
<path d="M712.794 2514.62C712.184 2512.94 713.769 2510.82 716.336 2509.89C718.902 2508.96 721.478 2509.56 722.089 2511.24C722.699 2512.91 721.114 2515.03 718.547 2515.97C715.981 2516.9 713.405 2516.3 712.794 2514.62Z" fill="black"/>
<path d="M707.078 2505.74C706.536 2504.25 707.937 2502.38 710.206 2501.55C712.475 2500.73 714.754 2501.26 715.295 2502.75C715.836 2504.24 714.435 2506.11 712.166 2506.94C709.897 2507.76 707.619 2507.23 707.078 2505.74Z" fill="black"/>
<path d="M704.431 2501.11C702.592 2502.2 700.479 2502.12 699.714 2500.92C698.948 2499.73 699.819 2497.88 701.659 2496.79C703.498 2495.7 705.61 2495.79 706.376 2496.98C707.142 2498.17 706.271 2500.02 704.431 2501.11Z" fill="black"/>
<path d="M362.447 799.078C353.948 794.132 349.959 783.074 352.805 772.907C353.328 771.082 353.793 769.193 354.161 767.303C355.671 758.813 353.638 748.158 345.119 746.269C340.821 745.271 336.543 747.097 333.523 750.557C324.52 761.275 327.269 793.559 327.347 801.646C327.347 805.191 327.424 808.82 328.702 812.132C331.567 819.561 339.621 822.532 346.765 824.591C358.497 829.282 365.893 823.36 368.371 818.987C370.849 814.615 372.65 804.894 362.447 799.078Z" fill="black"/>
<path d="M370.655 831.192C367.287 831.192 364.557 835.402 364.557 840.595C364.557 845.788 367.287 849.998 370.655 849.998C374.024 849.998 376.754 845.788 376.754 840.595C376.754 835.402 374.024 831.192 370.655 831.192Z" fill="black"/>
<path d="M356.561 833.421C354.562 833.421 352.941 835.93 352.941 839.024C352.941 842.119 354.562 844.628 356.561 844.628C358.561 844.628 360.182 842.119 360.182 839.024C360.182 835.93 358.561 833.421 356.561 833.421Z" fill="black"/>
<path d="M345.274 830.619C343.489 830.619 342.041 832.833 342.041 835.564C342.041 838.296 343.489 840.51 345.274 840.51C347.06 840.51 348.507 838.296 348.507 835.564C348.507 832.833 347.06 830.619 345.274 830.619Z" fill="black"/>
<path d="M334.975 828.284C333.392 828.284 332.109 830.242 332.109 832.657C332.109 835.071 333.392 837.029 334.975 837.029C336.557 837.029 337.84 835.071 337.84 832.657C337.84 830.242 336.557 828.284 334.975 828.284Z" fill="black"/>
<path d="M329.72 827.381C330.114 825.279 329.313 823.323 327.93 823.012C326.548 822.7 325.108 824.151 324.714 826.252C324.32 828.353 325.121 830.309 326.503 830.621C327.886 830.933 329.326 829.482 329.72 827.381Z" fill="black"/>
<path d="M304.447 1085.08C295.948 1080.13 291.959 1069.07 294.805 1058.91C295.328 1057.08 295.793 1055.19 296.16 1053.3C297.671 1044.81 295.638 1034.16 287.119 1032.27C282.821 1031.27 278.543 1033.1 275.522 1036.56C266.52 1047.27 269.269 1079.56 269.347 1087.65C269.347 1091.19 269.424 1094.82 270.702 1098.13C273.567 1105.56 281.621 1108.53 288.765 1110.59C300.497 1115.28 307.893 1109.36 310.371 1104.99C312.849 1100.61 314.649 1090.89 304.447 1085.08Z" fill="black"/>
<path d="M312.655 1117.19C309.287 1117.19 306.557 1121.4 306.557 1126.59C306.557 1131.79 309.287 1136 312.655 1136C316.023 1136 318.754 1131.79 318.754 1126.59C318.754 1121.4 316.023 1117.19 312.655 1117.19Z" fill="black"/>
<path d="M298.561 1119.42C296.562 1119.42 294.941 1121.93 294.941 1125.02C294.941 1128.12 296.562 1130.63 298.561 1130.63C300.561 1130.63 302.181 1128.12 302.181 1125.02C302.181 1121.93 300.561 1119.42 298.561 1119.42Z" fill="black"/>
<path d="M287.274 1116.62C285.489 1116.62 284.041 1118.83 284.041 1121.56C284.041 1124.29 285.489 1126.51 287.274 1126.51C289.06 1126.51 290.507 1124.29 290.507 1121.56C290.507 1118.83 289.06 1116.62 287.274 1116.62Z" fill="black"/>
<path d="M276.974 1114.28C275.392 1114.28 274.109 1116.24 274.109 1118.66C274.109 1121.07 275.392 1123.03 276.974 1123.03C278.557 1123.03 279.84 1121.07 279.84 1118.66C279.84 1116.24 278.557 1114.28 276.974 1114.28Z" fill="black"/>
<path d="M271.72 1113.38C272.114 1111.28 271.313 1109.32 269.93 1109.01C268.548 1108.7 267.108 1110.15 266.714 1112.25C266.32 1114.35 267.121 1116.31 268.503 1116.62C269.886 1116.93 271.326 1115.48 271.72 1113.38Z" fill="black"/>
<path d="M925.72 978.571C924.045 968.881 929.953 958.718 939.571 954.363C941.305 953.59 943.051 952.732 944.734 951.799C952.209 947.499 959.064 939.092 955.036 931.353C953.038 927.419 948.889 925.315 944.297 925.225C930.299 925.219 907.336 948.076 901.191 953.334C898.475 955.612 895.745 958.005 894.029 961.112C890.18 968.082 893.081 976.162 896.096 982.958C900.044 994.96 909.334 996.819 914.276 995.907C919.219 994.995 927.823 990.125 925.72 978.571Z" fill="black"/>
<path d="M906.396 1005.5C904.231 1002.92 899.251 1003.54 895.272 1006.87C891.294 1010.21 889.825 1015.01 891.989 1017.59C894.154 1020.17 899.134 1019.56 903.113 1016.22C907.091 1012.88 908.56 1008.08 906.396 1005.5Z" fill="black"/>
<path d="M895.629 996.138C894.343 994.606 891.38 994.977 889.009 996.966C886.638 998.955 885.758 1001.81 887.044 1003.34C888.329 1004.87 891.293 1004.5 893.663 1002.51C896.034 1000.52 896.914 997.669 895.629 996.138Z" fill="black"/>
<path d="M890.52 985.69C889.372 984.323 886.745 984.637 884.653 986.393C882.561 988.148 881.795 990.68 882.943 992.048C884.091 993.416 886.717 993.102 888.81 991.346C890.902 989.59 891.668 987.058 890.52 985.69Z" fill="black"/>
<path d="M885.688 976.3C884.671 975.087 882.346 975.363 880.497 976.915C878.647 978.467 877.972 980.708 878.989 981.921C880.006 983.133 882.33 982.857 884.18 981.305C886.03 979.753 886.705 977.512 885.688 976.3Z" fill="black"/>
<path d="M883.002 971.694C884.865 970.645 885.849 968.774 885.199 967.514C884.549 966.255 882.512 966.084 880.649 967.133C878.786 968.182 877.803 970.053 878.453 971.312C879.102 972.572 881.14 972.742 883.002 971.694Z" fill="black"/>
<path d="M351.341 1491.22C348.009 1481.96 352.062 1470.93 360.777 1464.97C362.351 1463.91 363.921 1462.76 365.417 1461.55C372.032 1456.02 377.323 1446.55 372.012 1439.62C369.361 1436.1 364.91 1434.75 360.372 1435.45C346.586 1437.88 327.94 1464.38 322.802 1470.62C320.523 1473.34 318.249 1476.17 317.1 1479.53C314.52 1487.06 318.779 1494.51 322.928 1500.68C328.901 1511.82 338.372 1512.03 343.081 1510.28C347.79 1508.52 355.418 1502.23 351.341 1491.22Z" fill="black"/>
<path d="M336.986 1521.09C334.406 1518.93 329.609 1520.4 326.271 1524.38C322.933 1528.35 322.318 1533.33 324.898 1535.5C327.478 1537.66 332.276 1536.2 335.614 1532.22C338.952 1528.24 339.567 1523.26 336.986 1521.09Z" fill="black"/>
<path d="M324.757 1513.74C323.225 1512.46 320.371 1513.34 318.382 1515.71C316.392 1518.08 316.022 1521.04 317.553 1522.33C319.085 1523.61 321.939 1522.73 323.928 1520.36C325.918 1517.99 326.289 1515.03 324.757 1513.74Z" fill="black"/>
<path d="M317.912 1504.34C316.544 1503.19 314.012 1503.96 312.256 1506.05C310.5 1508.14 310.186 1510.77 311.554 1511.92C312.922 1513.06 315.454 1512.3 317.209 1510.21C318.965 1508.11 319.279 1505.49 317.912 1504.34Z" fill="black"/>
<path d="M311.522 1495.93C310.31 1494.91 308.069 1495.59 306.517 1497.44C304.965 1499.29 304.689 1501.61 305.901 1502.63C307.114 1503.65 309.355 1502.97 310.907 1501.12C312.459 1499.27 312.735 1496.95 311.522 1495.93Z" fill="black"/>
<path d="M308.078 1491.86C309.731 1490.5 310.374 1488.49 309.515 1487.36C308.657 1486.24 306.621 1486.42 304.968 1487.78C303.316 1489.14 302.672 1491.15 303.531 1492.28C304.39 1493.4 306.425 1493.22 308.078 1491.86Z" fill="black"/>
<path d="M260.756 1755.19C255.868 1746.66 257.943 1735.09 265.491 1727.71C266.857 1726.39 268.204 1724.98 269.467 1723.53C275.02 1716.93 278.587 1706.69 272.154 1700.79C268.931 1697.78 264.313 1697.22 259.967 1698.71C246.811 1703.49 233.05 1732.82 229.074 1739.87C227.302 1742.94 225.554 1746.12 225.005 1749.62C223.772 1757.49 229.261 1764.09 234.418 1769.45C242.233 1779.37 251.599 1777.94 255.931 1775.4C260.264 1772.85 266.684 1765.33 260.756 1755.19Z" fill="black"/>
<path d="M251.808 1787.11C248.891 1785.42 244.421 1787.7 241.825 1792.2C239.228 1796.7 239.488 1801.71 242.405 1803.39C245.322 1805.08 249.791 1802.8 252.388 1798.3C254.984 1793.8 254.724 1788.79 251.808 1787.11Z" fill="black"/>
<path d="M238.487 1781.99C236.756 1780.99 234.098 1782.35 232.55 1785.03C231.003 1787.71 231.152 1790.7 232.884 1791.7C234.615 1792.7 237.273 1791.33 238.821 1788.65C240.368 1785.97 240.219 1782.99 238.487 1781.99Z" fill="black"/>
<path d="M230.113 1773.92C228.567 1773.03 226.206 1774.22 224.841 1776.59C223.475 1778.95 223.621 1781.59 225.168 1782.49C226.714 1783.38 229.075 1782.19 230.441 1779.82C231.806 1777.46 231.66 1774.81 230.113 1773.92Z" fill="black"/>
<path d="M222.361 1766.75C220.991 1765.96 218.901 1767.01 217.693 1769.1C216.486 1771.19 216.618 1773.53 217.989 1774.32C219.359 1775.11 221.449 1774.06 222.656 1771.97C223.864 1769.88 223.731 1767.54 222.361 1766.75Z" fill="black"/>
<path d="M218.262 1763.34C219.654 1761.72 219.938 1759.62 218.897 1758.66C217.855 1757.7 215.883 1758.24 214.491 1759.86C213.099 1761.48 212.815 1763.58 213.856 1764.54C214.898 1765.5 216.87 1764.96 218.262 1763.34Z" fill="black"/>
<path d="M237.447 2009.08C228.948 2004.13 224.959 1993.08 227.805 1982.91C228.328 1981.08 228.793 1979.19 229.16 1977.31C230.671 1968.82 228.638 1958.16 220.119 1956.27C215.821 1955.27 211.543 1957.1 208.522 1960.56C199.52 1971.28 202.269 2003.56 202.347 2011.65C202.347 2015.19 202.424 2018.82 203.702 2022.13C206.567 2029.56 214.621 2032.53 221.765 2034.59C233.497 2039.28 240.893 2033.36 243.371 2028.99C245.849 2024.62 247.649 2014.9 237.447 2009.08Z" fill="black"/>
<path d="M245.655 2041.19C242.287 2041.19 239.557 2045.4 239.557 2050.6C239.557 2055.79 242.287 2060 245.655 2060C249.023 2060 251.754 2055.79 251.754 2050.6C251.754 2045.4 249.023 2041.19 245.655 2041.19Z" fill="black"/>
<path d="M231.561 2043.42C229.562 2043.42 227.941 2045.93 227.941 2049.03C227.941 2052.12 229.562 2054.63 231.561 2054.63C233.561 2054.63 235.181 2052.12 235.181 2049.03C235.181 2045.93 233.561 2043.42 231.561 2043.42Z" fill="black"/>
<path d="M220.274 2040.62C218.489 2040.62 217.041 2042.84 217.041 2045.57C217.041 2048.3 218.489 2050.51 220.274 2050.51C222.06 2050.51 223.507 2048.3 223.507 2045.57C223.507 2042.84 222.06 2040.62 220.274 2040.62Z" fill="black"/>
<path d="M209.974 2038.29C208.392 2038.29 207.109 2040.24 207.109 2042.66C207.109 2045.07 208.392 2047.03 209.974 2047.03C211.557 2047.03 212.84 2045.07 212.84 2042.66C212.84 2040.24 211.557 2038.29 209.974 2038.29Z" fill="black"/>
<path d="M204.72 2037.38C205.114 2035.28 204.313 2033.33 202.93 2033.01C201.548 2032.7 200.108 2034.15 199.714 2036.25C199.32 2038.36 200.121 2040.31 201.503 2040.62C202.886 2040.93 204.326 2039.48 204.72 2037.38Z" fill="black"/>
<path d="M351.451 208.968C342.222 205.573 336.374 195.375 337.411 184.869C337.609 182.98 337.739 181.039 337.773 179.115C337.786 170.492 333.934 160.351 325.216 159.97C320.811 159.734 316.914 162.275 314.54 166.206C307.536 178.326 315.849 209.642 317.33 217.592C317.945 221.083 318.652 224.644 320.485 227.683C324.597 234.501 333.045 236.029 340.438 236.816C352.806 239.399 359.061 232.283 360.742 227.546C362.423 222.81 362.509 212.924 351.451 208.968Z" fill="black"/>
<path d="M365.111 239.169C361.794 239.754 359.837 244.374 360.738 249.488C361.64 254.602 365.06 258.274 368.377 257.689C371.694 257.104 373.652 252.484 372.75 247.37C371.848 242.256 368.428 238.584 365.111 239.169Z" fill="black"/>
<path d="M351.618 243.811C349.649 244.158 348.488 246.91 349.026 249.958C349.563 253.006 351.595 255.195 353.564 254.848C355.533 254.501 356.694 251.748 356.157 248.701C355.619 245.653 353.587 243.464 351.618 243.811Z" fill="black"/>
<path d="M340.016 243.012C338.258 243.322 337.217 245.754 337.691 248.444C338.165 251.133 339.975 253.063 341.734 252.753C343.492 252.442 344.533 250.011 344.059 247.321C343.585 244.631 341.775 242.702 340.016 243.012Z" fill="black"/>
<path d="M329.468 242.501C327.909 242.776 326.986 244.926 327.405 247.305C327.824 249.683 329.428 251.388 330.986 251.113C332.545 250.838 333.468 248.688 333.049 246.309C332.629 243.931 331.026 242.226 329.468 242.501Z" fill="black"/>
<path d="M324.136 242.524C324.159 240.386 323.03 238.599 321.615 238.532C320.199 238.465 319.033 240.144 319.01 242.281C318.986 244.419 320.115 246.206 321.531 246.273C322.946 246.34 324.113 244.661 324.136 242.524Z" fill="black"/>
<path d="M660.046 466.758C650.817 463.364 644.969 453.166 646.006 442.659C646.204 440.771 646.334 438.83 646.368 436.905C646.381 428.282 642.529 418.142 633.811 417.761C629.406 417.524 625.509 420.065 623.135 423.997C616.131 436.116 624.444 467.432 625.925 475.383C626.54 478.873 627.247 482.434 629.08 485.473C633.192 492.292 641.64 493.82 649.033 494.607C661.401 497.189 667.656 490.073 669.337 485.337C671.018 480.6 671.104 470.714 660.046 466.758Z" fill="black"/>
<path d="M673.706 496.959C670.389 497.544 668.432 502.164 669.333 507.278C670.235 512.392 673.655 516.064 676.972 515.479C680.289 514.894 682.247 510.274 681.345 505.16C680.443 500.046 677.023 496.374 673.706 496.959Z" fill="black"/>
<path d="M660.213 501.601C658.244 501.948 657.083 504.701 657.621 507.748C658.158 510.796 660.19 512.985 662.159 512.638C664.128 512.291 665.289 509.539 664.752 506.491C664.214 503.443 662.182 501.254 660.213 501.601Z" fill="black"/>
<path d="M648.611 500.802C646.853 501.112 645.812 503.544 646.286 506.234C646.76 508.924 648.57 510.853 650.329 510.543C652.087 510.233 653.128 507.801 652.654 505.111C652.18 502.421 650.37 500.492 648.611 500.802Z" fill="black"/>
<path d="M638.063 500.291C636.504 500.566 635.581 502.717 636 505.095C636.419 507.473 638.023 509.178 639.581 508.903C641.139 508.629 642.063 506.478 641.644 504.1C641.224 501.722 639.621 500.016 638.063 500.291Z" fill="black"/>
<path d="M632.731 500.314C632.754 498.176 631.625 496.389 630.21 496.322C628.794 496.255 627.628 497.934 627.605 500.072C627.581 502.21 628.71 503.997 630.126 504.064C631.541 504.13 632.708 502.452 632.731 500.314Z" fill="black"/>
<path d="M360.046 2349.76C350.817 2346.36 344.969 2336.17 346.006 2325.66C346.204 2323.77 346.334 2321.83 346.368 2319.91C346.381 2311.28 342.529 2301.14 333.811 2300.76C329.406 2300.53 325.509 2303.07 323.135 2307C316.131 2319.12 324.444 2350.43 325.925 2358.38C326.54 2361.87 327.247 2365.44 329.08 2368.47C333.192 2375.29 341.64 2376.82 349.032 2377.61C361.401 2380.19 367.656 2373.07 369.337 2368.34C371.018 2363.6 371.103 2353.71 360.046 2349.76Z" fill="black"/>
<path d="M373.706 2379.96C370.389 2380.54 368.432 2385.16 369.333 2390.28C370.235 2395.39 373.655 2399.06 376.972 2398.48C380.289 2397.9 382.247 2393.28 381.345 2388.16C380.443 2383.05 377.023 2379.37 373.706 2379.96Z" fill="black"/>
<path d="M360.213 2384.6C358.244 2384.95 357.083 2387.7 357.621 2390.75C358.158 2393.8 360.19 2395.99 362.159 2395.64C364.128 2395.29 365.289 2392.54 364.752 2389.49C364.214 2386.44 362.182 2384.25 360.213 2384.6Z" fill="black"/>
<path d="M348.611 2383.8C346.853 2384.11 345.812 2386.54 346.286 2389.23C346.76 2391.92 348.57 2393.85 350.329 2393.54C352.087 2393.23 353.128 2390.8 352.654 2388.11C352.18 2385.42 350.37 2383.49 348.611 2383.8Z" fill="black"/>
<path d="M338.063 2383.29C336.504 2383.57 335.581 2385.72 336 2388.1C336.419 2390.47 338.023 2392.18 339.581 2391.9C341.139 2391.63 342.063 2389.48 341.644 2387.1C341.224 2384.72 339.621 2383.02 338.063 2383.29Z" fill="black"/>
<path d="M332.731 2383.31C332.754 2381.18 331.625 2379.39 330.21 2379.32C328.794 2379.26 327.628 2380.93 327.605 2383.07C327.581 2385.21 328.71 2387 330.126 2387.06C331.541 2387.13 332.708 2385.45 332.731 2383.31Z" fill="black"/>
<path d="M716.85 236.321C726.684 236.355 735.667 243.937 738.285 254.165C738.745 256.007 739.288 257.876 739.914 259.696C742.851 267.803 749.939 276.015 758.261 273.391C762.482 272.106 765.274 268.386 766.16 263.88C768.597 250.096 750.074 223.512 745.964 216.547C744.191 213.477 742.31 210.373 739.547 208.144C733.351 203.143 724.891 204.596 717.675 206.385C705.169 208.189 701.725 217.015 701.765 222.041C701.805 227.067 705.106 236.386 716.85 236.321Z" fill="black"/>
<path d="M693.684 212.614C696.601 210.93 696.861 205.919 694.264 201.422C691.668 196.924 687.198 194.644 684.281 196.328C681.365 198.012 681.105 203.023 683.701 207.52C686.298 212.017 690.767 214.298 693.684 212.614Z" fill="black"/>
<path d="M704.776 203.637C706.508 202.637 706.657 199.654 705.11 196.974C703.562 194.294 700.904 192.931 699.172 193.931C697.441 194.931 697.292 197.914 698.839 200.594C700.386 203.274 703.044 204.636 704.776 203.637Z" fill="black"/>
<path d="M715.952 200.42C717.498 199.527 717.645 196.885 716.279 194.52C714.913 192.155 712.553 190.961 711.006 191.854C709.46 192.747 709.313 195.388 710.679 197.753C712.045 200.119 714.405 201.312 715.952 200.42Z" fill="black"/>
<path d="M726.039 197.292C727.409 196.501 727.541 194.164 726.334 192.072C725.127 189.981 723.037 188.927 721.666 189.718C720.296 190.51 720.164 192.846 721.371 194.938C722.579 197.029 724.668 198.083 726.039 197.292Z" fill="black"/>
<path d="M731.041 195.447C731.751 197.464 733.422 198.757 734.775 198.336C736.129 197.914 736.65 195.938 735.941 193.921C735.232 191.904 733.56 190.611 732.207 191.032C730.854 191.454 730.332 193.43 731.041 195.447Z" fill="black"/>
<path d="M635.85 741.321C645.683 741.355 654.666 748.937 657.285 759.165C657.745 761.007 658.287 762.876 658.913 764.696C661.851 772.803 668.939 781.015 677.26 778.391C681.481 777.106 684.274 773.386 685.16 768.88C687.597 755.096 669.074 728.512 664.963 721.547C663.191 718.477 661.309 715.373 658.547 713.144C652.351 708.143 643.891 709.597 636.674 711.385C624.168 713.189 620.725 722.016 620.765 727.041C620.805 732.067 624.106 741.386 635.85 741.321Z" fill="black"/>
<path d="M612.684 717.614C615.601 715.93 615.861 710.919 613.264 706.422C610.667 701.924 606.198 699.644 603.281 701.328C600.364 703.012 600.105 708.023 602.701 712.52C605.298 717.017 609.767 719.298 612.684 717.614Z" fill="black"/>
<path d="M623.776 708.637C625.507 707.637 625.657 704.654 624.109 701.974C622.562 699.294 619.904 697.931 618.172 698.931C616.441 699.931 616.291 702.914 617.839 705.594C619.386 708.274 622.044 709.636 623.776 708.637Z" fill="black"/>
<path d="M634.951 705.42C636.498 704.527 636.644 701.886 635.279 699.52C633.913 697.155 631.552 695.961 630.006 696.854C628.459 697.747 628.313 700.388 629.679 702.753C631.044 705.119 633.405 706.312 634.951 705.42Z" fill="black"/>
<path d="M645.039 702.292C646.409 701.501 646.541 699.164 645.334 697.072C644.126 694.981 642.037 693.927 640.666 694.718C639.296 695.51 639.163 697.846 640.371 699.938C641.578 702.029 643.668 703.083 645.039 702.292Z" fill="black"/>
<path d="M650.041 700.447C650.75 702.464 652.422 703.757 653.775 703.336C655.128 702.914 655.65 700.938 654.941 698.921C654.231 696.904 652.559 695.611 651.206 696.032C649.853 696.454 649.332 698.43 650.041 700.447Z" fill="black"/>
<path d="M1164.85 923.321C1174.68 923.354 1183.67 930.937 1186.29 941.165C1186.75 943.007 1187.29 944.876 1187.91 946.696C1190.85 954.803 1197.94 963.015 1206.26 960.391C1210.48 959.106 1213.27 955.386 1214.16 950.88C1216.6 937.096 1198.07 910.512 1193.96 903.547C1192.19 900.477 1190.31 897.373 1187.55 895.144C1181.35 890.143 1172.89 891.596 1165.67 893.385C1153.17 895.189 1149.72 904.015 1149.77 909.041C1149.81 914.067 1153.11 923.386 1164.85 923.321Z" fill="black"/>
<path d="M1141.68 899.614C1144.6 897.93 1144.86 892.919 1142.26 888.421C1139.67 883.924 1135.2 881.644 1132.28 883.328C1129.36 885.012 1129.1 890.023 1131.7 894.52C1134.3 899.017 1138.77 901.298 1141.68 899.614Z" fill="black"/>
<path d="M1152.78 890.637C1154.51 889.637 1154.66 886.654 1153.11 883.974C1151.56 881.294 1148.9 879.931 1147.17 880.931C1145.44 881.931 1145.29 884.914 1146.84 887.594C1148.39 890.274 1151.04 891.636 1152.78 890.637Z" fill="black"/>
<path d="M1163.95 887.42C1165.5 886.527 1165.64 883.885 1164.28 881.52C1162.91 879.155 1160.55 877.961 1159.01 878.854C1157.46 879.746 1157.31 882.388 1158.68 884.753C1160.04 887.119 1162.41 888.312 1163.95 887.42Z" fill="black"/>
<path d="M1174.04 884.292C1175.41 883.5 1175.54 881.164 1174.33 879.072C1173.13 876.981 1171.04 875.927 1169.67 876.718C1168.3 877.51 1168.16 879.846 1169.37 881.938C1170.58 884.029 1172.67 885.083 1174.04 884.292Z" fill="black"/>
<path d="M1179.04 882.447C1179.75 884.464 1181.42 885.757 1182.78 885.336C1184.13 884.914 1184.65 882.938 1183.94 880.921C1183.23 878.904 1181.56 877.611 1180.21 878.032C1178.85 878.454 1178.33 880.43 1179.04 882.447Z" fill="black"/>
<defs>
<clipPath id="clip0_17_204">
<rect width="88" height="104" fill="white" transform="matrix(-1 0 0 -1 339 104)"/>
</clipPath>
</defs>
</svg>
