<svg width="1400" height="7441" viewBox="0 0 1400 7441" fill="none" xmlns="http://www.w3.org/2000/svg" class="squiggle">
<path d="M43.0436 10.063C122.044 5.06295 67.8447 299.263 187.045 412.063C336.045 553.063 486.047 466.063 522.047 356.063C558.047 246.063 384.046 142.063 332.046 241.063C282.648 335.11 426.046 499.063 324.046 689.063C297.993 737.594 95.044 864.063 124.044 1005.06C153.044 1146.06 414.046 1266.06 434.046 921.063C454.046 576.063 -600 1703 770 1516C1031 1451 1150.2 657.8 427 1385C-477 2294 330.047 3557.06 614.047 2903.06C898.047 2249.06 467.999 2390 210.999 2987C5.39894 3464.6 363 4335.94 487 4434C726 4623 997.712 4417.06 1154.05 4417.06C1154.57 4417.12 1155.09 4417.19 1155.61 4417.25C1335.54 4440.33 1081.67 4845.47 966 5008C830 5184.33 541.2 5490.8 474 5306C390 5075 1073 4843 1054 5204C1038.8 5492.8 707.667 6031.67 544 6265C472 6369.67 395.8 6563.6 667 6502C1006 6425 1260 6559 1237 6360C1214 6161 101 6485 714 6949C1204.4 7320.2 1373.67 7425 1397 7431" stroke="#FF0000" stroke-width="20" stroke-linejoin="round" stroke-linecap="round"/>
</svg>
