<svg width="1155" height="4524" viewBox="0 0 1155 4524" fill="none" xmlns="http://www.w3.org/2000/svg" class="squiggle">
<path d="M43.0442 10.063C122.044 5.06295 67.8454 299.263 187.045 412.063C336.045 553.063 486.047 466.063 522.047 356.063C558.047 246.063 384.046 142.063 332.046 241.063C282.648 335.11 426.046 499.063 324.046 689.063C297.993 737.594 95.0444 864.063 124.044 1005.06C153.044 1146.06 414.046 1266.06 434.046 921.063C454.046 576.063 -600 1703 770 1516C1031 1451 1150.2 657.8 427 1385C-477 2294 330.047 3557.06 614.047 2903.06C898.047 2249.06 468 2390 211 2987C5.39973 3464.6 363 4335.94 487 4434C726 4623 997.712 4417.06 1154.05 4417.06" stroke="#FF0000" stroke-width="20" stroke-linejoin="round" stroke-linecap="round"/>
</svg>
