<svg width="1021" height="7020" viewBox="0 0 1021 7020" fill="none" xmlns="http://www.w3.org/2000/svg" class="squiggle">
<path d="M44.2806 10.0516C126.27 5.95613 70.0205 246.931 193.731 339.324C348.37 454.815 504.042 383.555 541.404 293.455C578.767 203.356 398.182 118.171 344.214 199.26C292.946 276.293 441.771 410.585 335.911 566.211C308.872 605.962 98.2491 709.551 128.347 825.042C158.444 940.533 429.317 1038.82 450.074 756.239C470.831 473.654 -623.102 1396.71 798.741 1243.54C1069.62 1190.3 1193.33 540.604 442.761 1136.24C-495.448 1880.79 342.139 2915.35 636.886 2379.67C931.633 1843.98 485.317 1959.42 218.592 2448.42C5.21173 2839.61 -22.2392 3567.19 106.453 3647.51C354.497 3802.32 636.491 3633.64 798.741 3633.64C799.285 3633.68 936.869 3646.44 937.406 3646.49C1124.14 3665.4 860.666 3997.24 740.622 4130.37C599.475 4274.8 561.283 4499.25 491.54 4347.88C404.361 4158.67 742.749 4046.45 723.03 4342.14C707.255 4578.7 388.452 4821.88 218.592 5013C143.867 5098.73 410.38 5377.96 691.843 5327.51C1043.67 5264.44 781.66 5043.61 636.886 4965C106.453 4677 -300.286 5313.58 335.911 5693.64C844.869 5997.68 1557.73 7010 335.911 7010" stroke="#FF0000" stroke-width="20" stroke-linejoin="round" stroke-linecap="round"/>
</svg>
